<svg width="200" height="200" viewBox="0 0 200 200" fill="none" xmlns="http://www.w3.org/2000/svg">
<path d="M54.2227 145.834L84.4013 128.704C86.8611 127.302 86.842 123.754 84.3535 122.399L53.725 105.641C51.6958 104.534 49.2168 105.994 49.2168 108.302V142.944C49.2168 145.51 51.9925 147.113 54.2227 145.844V145.834Z" fill="white"/>
<path d="M145.967 145.834L115.789 128.704C113.329 127.302 113.348 123.754 115.837 122.399L146.465 105.641C148.495 104.534 150.973 105.994 150.973 108.302V142.944C150.973 145.51 148.198 147.113 145.967 145.844V145.834Z" fill="white"/>
<path d="M192.786 59.4351L167.392 44.2211C165.553 43.1241 163.257 43.0955 161.4 44.1543L103.011 77.4631C101.154 78.5219 98.8762 78.5219 97.0192 77.4631L38.6213 44.1639C36.7643 43.1051 34.4671 43.1241 32.6293 44.2306L7.22549 59.4351C5.39726 60.532 4.27734 62.497 4.27734 64.6241V134.914C4.27734 136.936 5.32068 138.825 7.03404 139.912L28.7909 153.648C29.2408 153.934 30.1406 154.487 31.1647 155.126C33.3375 156.471 36.1422 154.907 36.123 152.36C36.123 151.273 36.123 150.281 36.123 149.67L36.2378 87.0971C36.2378 83.7776 39.8465 81.7077 42.7372 83.3579L96.8565 114.358C98.8092 115.474 101.202 115.474 103.145 114.358L157.265 83.3579C160.156 81.7077 163.754 83.7776 163.764 87.0971L163.878 149.67C163.878 150.223 163.888 151.235 163.898 152.379C163.917 154.907 166.712 156.452 168.865 155.107C169.832 154.506 170.714 153.962 171.211 153.648L192.968 139.912C194.681 138.825 195.725 136.946 195.725 134.914V64.6241C195.725 62.497 194.604 60.5225 192.776 59.4351H192.786Z" fill="white"/>
</svg>
